<?xml version="1.0" standalone="no"?>
<!DOCTYPE svg PUBLIC "-//W3C//DTD SVG 20010904//EN"
 "http://www.w3.org/TR/2001/REC-SVG-20010904/DTD/svg10.dtd">
<svg version="1.0" xmlns="http://www.w3.org/2000/svg"
 width="1200.000000pt" height="1200.000000pt" viewBox="0 0 1200.000000 1200.000000"
 preserveAspectRatio="xMidYMid meet">
<metadata>
Created by potrace 1.11, written by Peter Selinger 2001-2013
</metadata>
<g transform="translate(0.000000,1200.000000) scale(0.100000,-0.100000)"
fill="#000000" stroke="none">
<path d="M3560 11981 c-8 -5 -31 -11 -51 -14 -20 -2 -41 -7 -46 -10 -5 -4 -24
-9 -41 -12 -18 -3 -54 -19 -81 -35 -26 -17 -53 -30 -58 -30 -17 0 -114 -69
-167 -119 -117 -111 -199 -250 -254 -432 -11 -39 -14 -10566 -2 -10622 17 -82
69 -203 122 -284 51 -80 219 -253 244 -253 8 0 14 -4 14 -10 0 -5 6 -10 14
-10 8 0 16 -7 19 -15 7 -16 120 -76 189 -100 38 -13 308 -15 2198 -15 1810 0
2163 3 2208 14 28 8 52 11 52 8 0 -4 4 -2 8 3 4 6 32 19 62 29 242 85 473 340
537 591 15 61 25 116 29 160 6 68 6 10330 0 10380 -9 74 -26 152 -41 190 -61
156 -124 255 -224 355 -99 97 -255 193 -351 215 -3 1 -23 7 -45 13 -48 14
-4310 17 -4335 3z m4220 -85 c19 -4 44 -9 55 -11 130 -21 316 -130 420 -247
93 -106 177 -284 192 -410 9 -70 9 -10358 0 -10423 -10 -77 -16 -101 -43 -173
-51 -136 -143 -259 -269 -360 -61 -48 -191 -109 -285 -133 l-85 -22 -2035 -1
c-1119 0 -2063 3 -2096 7 -341 40 -624 314 -682 662 -9 52 -9 10396 0 10456 3
25 16 72 27 105 12 32 23 66 25 74 2 9 14 34 26 55 137 245 367 399 640 427
61 7 4079 0 4110 -6z"/>
<path d="M5629 11507 c-56 -38 -74 -72 -74 -137 0 -44 5 -66 21 -86 32 -44 68
-66 117 -71 120 -14 210 108 163 221 -34 82 -156 121 -227 73z m131 -120 c10
-27 -7 -57 -39 -68 -32 -12 -74 30 -62 63 18 51 82 54 101 5z"/>
<path d="M5192 11009 c-60 -22 -74 -101 -28 -148 l25 -25 493 -1 c271 0 509 2
528 5 24 4 41 15 56 38 27 40 23 77 -12 112 l-24 25 -510 0 c-280 1 -518 -2
-528 -6z"/>
<path d="M4869 10981 c-20 -20 -29 -39 -29 -61 0 -42 47 -90 89 -90 42 0 82
37 86 80 3 44 -8 66 -45 85 -43 22 -68 19 -101 -14z"/>
<path d="M3195 6014 c0 -2383 3 -4335 6 -4338 8 -8 5010 -8 5018 0 7 7 8 8663
1 8666 -3 0 -1135 2 -2515 3 l-2510 1 0 -4332z m175 4224 c0 4 19 6 42 4 47
-3 119 -2 186 1 23 1 42 -1 42 -5 0 -4 13 -3 29 2 15 4 34 4 41 0 7 -5 20 -5
29 -2 16 6 56 6 103 -1 14 -2 32 -1 38 3 7 4 27 4 46 0 18 -4 35 -5 38 -2 6 5
98 6 121 2 6 -1 15 -1 20 0 19 4 208 0 212 -4 3 -2 17 -1 32 4 16 4 34 4 41 0
7 -4 24 -4 39 0 14 4 38 4 52 -1 15 -4 32 -3 39 1 6 4 27 4 46 0 18 -4 35 -5
38 -2 6 5 98 6 121 2 6 -1 15 -1 20 0 11 2 135 2 303 0 29 -1 156 -1 172 -1 8
1 38 1 67 2 28 1 56 -2 62 -5 5 -4 12 -3 15 2 3 5 28 6 55 2 28 -3 56 -3 62 1
6 3 26 3 45 -1 18 -4 35 -5 38 -2 6 5 98 6 121 2 6 -1 15 -1 20 0 19 4 227 0
234 -4 4 -3 13 -1 20 3 7 5 28 5 47 1 18 -4 36 -5 39 -2 3 3 31 5 63 3 31 -1
64 -2 72 -2 52 2 116 3 125 1 6 -1 15 -2 20 0 6 1 44 1 85 0 41 -1 82 -1 90
-1 82 3 120 2 129 -3 5 -4 12 -3 15 2 3 5 28 6 55 2 28 -3 56 -3 62 1 6 3 26
3 45 -1 18 -4 35 -5 38 -2 6 5 98 6 121 2 6 -1 15 -1 20 0 19 4 227 0 234 -4
4 -3 13 -1 20 3 7 5 28 5 47 1 18 -4 36 -5 39 -2 3 3 31 5 63 3 31 -1 64 -2
72 -2 75 3 120 2 129 -3 5 -4 12 -3 15 2 3 5 28 6 55 2 28 -3 56 -3 62 1 6 3
26 3 45 -1 18 -4 35 -5 38 -2 6 5 98 6 121 2 6 -1 13 -1 18 0 7 1 117 2 156 1
19 -1 20 -56 20 -4234 l0 -4232 -2407 0 -2407 0 -3 175 c-4 212 -3 161 -3 430
0 124 0 232 0 240 0 17 0 776 0 800 0 14 0 445 0 480 0 8 0 116 0 240 0 124 0
232 0 240 0 94 0 469 0 480 0 28 1 145 0 160 0 12 0 425 0 480 0 18 0 267 0
293 0 9 0 82 0 162 0 80 0 152 0 160 0 8 0 123 0 255 0 289 0 222 0 490 0 124
0 232 0 240 0 30 0 596 0 613 0 9 0 82 0 162 0 80 0 152 0 160 0 24 0 174 0
188 0 15 0 456 0 477 0 28 1 145 0 160 0 8 0 116 0 240 0 124 0 232 0 240 0
65 0 469 0 485 0 11 0 108 0 216 0 107 3 198 6 201 4 3 20 2 36 -2 16 -5 29
-6 29 -2z"/>
<path d="M5740 1443 c0 -4 -23 -7 -50 -6 -213 6 -438 -169 -485 -377 -2 -8 -4
-15 -5 -15 -8 0 -13 -138 -6 -197 16 -148 136 -309 280 -377 187 -90 388 -66
554 67 38 30 122 132 122 147 0 3 9 26 20 49 27 61 38 114 38 196 1 194 -108
368 -283 454 -38 19 -88 38 -110 42 -22 3 -48 11 -57 16 -10 5 -18 5 -18 1z
m70 -125 c230 -71 348 -308 266 -536 -57 -159 -226 -267 -401 -257 -67 4 -147
27 -176 52 -8 7 -20 13 -25 13 -14 0 -117 112 -130 141 -6 13 -17 35 -23 49
-7 14 -13 32 -14 40 -2 8 -5 20 -8 25 -10 17 -2 160 11 201 67 210 296 335
500 272z"/>
</g>
</svg>
